<svg width="19" height="19" viewBox="0 0 19 19" fill="none" xmlns="http://www.w3.org/2000/svg">
<g clip-path="url(#clip0_1010_1471)">
<path d="M17.0441 9.60086C16.918 13.7333 13.4634 16.9787 9.33659 16.8513C5.20402 16.7252 1.95866 13.2708 2.08608 9.14404C2.2122 5.01159 5.66096 1.76745 9.79354 1.89361C13.9191 2.01524 17.1703 5.46834 17.0441 9.60086Z" fill="url(#paint0_linear_1010_1471)"/>
<path d="M12.8492 7.70516C12.7812 6.70276 11.93 6.3371 10.8372 6.20935L10.882 4.81745L10.0387 4.79113L9.99778 6.14626C9.77519 6.14074 9.5469 6.13645 9.31984 6.13788L9.35947 4.77703L8.51608 4.75071L8.4757 6.13565C8.28988 6.13411 8.10978 6.13133 7.93538 6.1273L7.93414 6.12159L6.76607 6.08797L6.74073 6.99098C6.74073 6.99098 7.36476 6.9991 7.35458 7.0073C7.69764 7.01659 7.80192 7.22132 7.82771 7.39522L7.77684 8.97989C7.80094 8.98064 7.83075 8.98015 7.86875 8.98985C7.83894 8.99034 7.80913 8.99083 7.77808 8.9856L7.70889 11.2025C7.68999 11.3083 7.61939 11.4792 7.38413 11.4705C7.39233 11.4806 6.77029 11.4541 6.77029 11.4541L6.57003 12.4609L7.67276 12.4968C7.8782 12.506 8.07669 12.5108 8.27642 12.5213L8.23404 13.9246L9.07743 13.9509L9.12228 12.559C9.35182 12.569 9.58136 12.579 9.79823 12.5858L9.75785 13.9707L10.6012 13.9971L10.6436 12.5937C12.0708 12.5531 13.077 12.227 13.2364 10.894C13.3691 9.8241 12.8781 9.32637 12.0762 9.10555C12.5816 8.87019 12.9002 8.43604 12.8492 7.70516ZM11.5732 10.6747C11.5434 11.7223 9.74685 11.5499 9.17424 11.5306L9.23091 9.66942C9.80352 9.68871 11.6103 9.57767 11.5732 10.6747ZM11.2627 8.03164C11.2314 8.9898 9.73668 8.82965 9.26046 8.81336L9.3131 7.12659C9.78932 7.14287 11.2923 7.03796 11.2627 8.03164Z" fill="black"/>
</g>
<defs>
<linearGradient id="paint0_linear_1010_1471" x1="731.59" y1="-155.404" x2="1049.21" y2="1307.6" gradientUnits="userSpaceOnUse">
<stop stop-color="#F9AA4B"/>
<stop offset="1" stop-color="#F7931A"/>
</linearGradient>
<clipPath id="clip0_1010_1471">
<rect width="14.9687" height="14.9687" fill="white" transform="translate(0.663086 3.64636) rotate(-12.2487)"/>
</clipPath>
</defs>
</svg>
