<svg width="19" height="19" viewBox="0 0 19 19" fill="none" xmlns="http://www.w3.org/2000/svg">
<path d="M6.3282 18.6976C5.83096 18.6976 5.40515 18.5204 5.05075 18.166C4.69636 17.8117 4.51947 17.3861 4.52007 16.8895C4.52007 16.3923 4.69727 15.9665 5.05166 15.6121C5.40605 15.2577 5.83157 15.0808 6.3282 15.0814C6.82543 15.0814 7.25125 15.2586 7.60564 15.613C7.96004 15.9674 8.13693 16.3929 8.13633 16.8895C8.13633 17.3867 7.95913 17.8126 7.60474 18.167C7.25034 18.5213 6.82483 18.6982 6.3282 18.6976ZM15.3688 18.6976C14.8716 18.6976 14.4458 18.5204 14.0914 18.166C13.737 17.8117 13.5601 17.3861 13.5607 16.8895C13.5607 16.3923 13.7379 15.9665 14.0923 15.6121C14.4467 15.2577 14.8722 15.0808 15.3688 15.0814C15.8661 15.0814 16.2919 15.2586 16.6463 15.613C17.0007 15.9674 17.1776 16.3929 17.177 16.8895C17.177 17.3867 16.9998 17.8126 16.6454 18.167C16.291 18.5213 15.8655 18.6982 15.3688 18.6976ZM6.3282 14.1773C5.65015 14.1773 5.13785 13.8796 4.79129 13.2841C4.44473 12.6886 4.42966 12.0974 4.74608 11.5103L5.96657 9.29536L2.71194 2.42447H1.78527C1.52912 2.42447 1.31817 2.33768 1.15243 2.1641C0.986681 1.99051 0.903809 1.77595 0.903809 1.5204C0.903809 1.26425 0.990599 1.04938 1.16418 0.875803C1.33776 0.702222 1.55232 0.615733 1.80787 0.616336H3.27698C3.44272 0.616336 3.60094 0.661539 3.75161 0.751946C3.90229 0.842352 4.0153 0.970428 4.09064 1.13617L4.70088 2.42447H18.0358C18.4427 2.42447 18.7214 2.57514 18.8721 2.8765C19.0228 3.17785 19.0152 3.49428 18.8495 3.82577L15.6401 9.61178C15.4743 9.91314 15.2558 10.1467 14.9846 10.3124C14.7134 10.4782 14.4045 10.5611 14.058 10.5611H7.32267L6.3282 12.3692H16.2955C16.5517 12.3692 16.7626 12.456 16.9284 12.6296C17.0941 12.8031 17.177 13.0177 17.177 13.2732C17.177 13.5294 17.0902 13.7443 16.9166 13.9178C16.743 14.0914 16.5285 14.1779 16.2729 14.1773H6.3282Z" fill="#6900FF"/>
</svg>
