<svg width="31" height="24" viewBox="0 0 31 24" fill="none" xmlns="http://www.w3.org/2000/svg">
<path d="M26.0656 2.68146C24.1488 1.78793 22.0735 1.13941 19.9117 0.764699C19.8928 0.764093 19.8739 0.76765 19.8565 0.77512C19.8391 0.78259 19.8235 0.793792 19.8109 0.807935C19.5514 1.28352 19.2488 1.90323 19.047 2.37882C16.7541 2.03293 14.4223 2.03293 12.1294 2.37882C11.9276 1.88882 11.625 1.28352 11.3511 0.807935C11.3367 0.779112 11.2935 0.764699 11.2503 0.764699C9.0885 1.13941 7.02762 1.78793 5.09644 2.68146C5.08203 2.68146 5.06762 2.69588 5.0532 2.71029C1.1332 8.57588 0.0523208 14.2829 0.585556 19.9323C0.585556 19.9612 0.599968 19.99 0.628791 20.0044C3.22291 21.9068 5.71615 23.0597 8.18056 23.8235C8.22379 23.8379 8.26703 23.8235 8.28144 23.7947C8.85791 23.0021 9.37673 22.1662 9.8235 21.2871C9.85232 21.2294 9.8235 21.1718 9.76585 21.1573C8.94438 20.8403 8.16614 20.4656 7.40232 20.0332C7.34467 20.0044 7.34467 19.9179 7.38791 19.8747C7.54644 19.7594 7.70497 19.6297 7.8635 19.5144C7.89232 19.4856 7.93556 19.4856 7.96438 19.5C12.922 21.7626 18.2688 21.7626 23.1688 19.5C23.1976 19.4856 23.2409 19.4856 23.2697 19.5144C23.4282 19.6441 23.5867 19.7594 23.7453 19.8891C23.8029 19.9323 23.8029 20.0188 23.7309 20.0476C22.9814 20.4944 22.1888 20.8547 21.3673 21.1718C21.3097 21.1862 21.2953 21.2582 21.3097 21.3015C21.7709 22.1806 22.2897 23.0165 22.8517 23.8091C22.895 23.8235 22.9382 23.8379 22.9814 23.8235C25.4603 23.0597 27.9535 21.9068 30.5476 20.0044C30.5764 19.99 30.5909 19.9612 30.5909 19.9323C31.225 13.4038 29.5388 7.73999 26.1232 2.71029C26.1088 2.69588 26.0944 2.68146 26.0656 2.68146ZM10.5729 16.4879C9.0885 16.4879 7.84909 15.1188 7.84909 13.4326C7.84909 11.7465 9.05968 10.3773 10.5729 10.3773C12.1006 10.3773 13.3111 11.7609 13.2967 13.4326C13.2967 15.1188 12.0861 16.4879 10.5729 16.4879ZM20.6179 16.4879C19.1335 16.4879 17.8941 15.1188 17.8941 13.4326C17.8941 11.7465 19.1047 10.3773 20.6179 10.3773C22.1456 10.3773 23.3561 11.7609 23.3417 13.4326C23.3417 15.1188 22.1456 16.4879 20.6179 16.4879Z" fill="#6900FF"/>
</svg>
