<svg width="27" height="27" viewBox="0 0 27 27" fill="none" xmlns="http://www.w3.org/2000/svg">
<path d="M19.5145 0.933807H7.77918C5.96421 0.935749 4.22414 1.6576 2.94076 2.94098C1.65739 4.22435 0.935535 5.96443 0.933594 7.7794V19.5147C0.935535 21.3297 1.65739 23.0697 2.94076 24.3531C4.22414 25.6365 5.96421 26.3583 7.77918 26.3603H19.5145C21.3294 26.3583 23.0695 25.6365 24.3529 24.3531C25.6363 23.0697 26.3581 21.3297 26.3601 19.5147V7.7794C26.3581 5.96443 25.6363 4.22435 24.3529 2.94098C23.0695 1.6576 21.3294 0.935749 19.5145 0.933807ZM13.6468 19.5147C12.4863 19.5147 11.3519 19.1706 10.3869 18.5258C9.42201 17.8811 8.66994 16.9647 8.22583 15.8925C7.78172 14.8203 7.66552 13.6405 7.89193 12.5023C8.11833 11.3641 8.67717 10.3186 9.49778 9.49799C10.3184 8.67738 11.3639 8.11855 12.5021 7.89214C13.6403 7.66574 14.8201 7.78194 15.8923 8.22604C16.9645 8.67015 17.8809 9.42222 18.5256 10.3872C19.1703 11.3521 19.5145 12.4865 19.5145 13.647C19.5129 15.2027 18.8941 16.6943 17.7941 17.7943C16.694 18.8944 15.2025 19.5131 13.6468 19.5147ZM20.9814 7.7794C20.6913 7.7794 20.4076 7.69336 20.1664 7.53218C19.9252 7.37099 19.7372 7.14189 19.6261 6.87385C19.5151 6.6058 19.4861 6.31086 19.5427 6.0263C19.5993 5.74175 19.739 5.48037 19.9441 5.27522C20.1493 5.07007 20.4107 4.93036 20.6952 4.87376C20.9798 4.81716 21.2747 4.84621 21.5427 4.95723C21.8108 5.06826 22.0399 5.25628 22.2011 5.49751C22.3623 5.73874 22.4483 6.02236 22.4483 6.31248C22.4483 6.70153 22.2937 7.07465 22.0187 7.34975C21.7436 7.62485 21.3704 7.7794 20.9814 7.7794ZM17.5586 13.647C17.5586 14.4207 17.3292 15.177 16.8993 15.8203C16.4695 16.4636 15.8586 16.965 15.1438 17.261C14.429 17.5571 13.6425 17.6346 12.8837 17.4836C12.1249 17.3327 11.4279 16.9601 10.8808 16.4131C10.3337 15.866 9.96116 15.169 9.81023 14.4102C9.65929 13.6514 9.73676 12.8649 10.0328 12.1501C10.3289 11.4353 10.8303 10.8244 11.4736 10.3945C12.1169 9.9647 12.8732 9.73528 13.6468 9.73528C14.6843 9.73528 15.6793 10.1474 16.4129 10.881C17.1465 11.6146 17.5586 12.6096 17.5586 13.647Z" fill="#6900FF"/>
</svg>
