<svg width="18" height="17" viewBox="0 0 18 17" fill="none" xmlns="http://www.w3.org/2000/svg">
<path d="M5.40998 13.3691C5.66613 13.3691 5.88099 13.2823 6.05457 13.1087C6.22815 12.9351 6.31464 12.7206 6.31404 12.465C6.31404 12.2089 6.22725 11.994 6.05367 11.8204C5.88009 11.6468 5.66552 11.5603 5.40998 11.5609C5.15382 11.5609 4.93896 11.6477 4.76538 11.8213C4.5918 11.9949 4.50531 12.2095 4.50591 12.465C4.50591 12.7212 4.5927 12.936 4.76628 13.1096C4.93986 13.2832 5.15443 13.3697 5.40998 13.3691ZM5.40998 9.75281C5.66613 9.75281 5.88099 9.66602 6.05457 9.49244C6.22815 9.31886 6.31464 9.10429 6.31404 8.84875C6.31404 8.59259 6.22725 8.37773 6.05367 8.20415C5.88009 8.03057 5.66552 7.94408 5.40998 7.94468C5.15382 7.94468 4.93896 8.03147 4.76538 8.20505C4.5918 8.37863 4.50531 8.5932 4.50591 8.84875C4.50591 9.1049 4.5927 9.31976 4.76628 9.49334C4.93986 9.66692 5.15443 9.75341 5.40998 9.75281ZM5.40998 6.13655C5.66613 6.13655 5.88099 6.04976 6.05457 5.87618C6.22815 5.7026 6.31464 5.48803 6.31404 5.23249C6.31404 4.97633 6.22725 4.76147 6.05367 4.58789C5.88009 4.41431 5.66552 4.32782 5.40998 4.32842C5.15382 4.32842 4.93896 4.41521 4.76538 4.58879C4.5918 4.76237 4.50531 4.97694 4.50591 5.23249C4.50591 5.48864 4.5927 5.7035 4.76628 5.87708C4.93986 6.05066 5.15443 6.13715 5.40998 6.13655ZM8.12217 13.3691H13.5466V11.5609H8.12217V13.3691ZM8.12217 9.75281H13.5466V7.94468H8.12217V9.75281ZM8.12217 6.13655H13.5466V4.32842H8.12217V6.13655ZM2.69778 16.9853C2.20054 16.9853 1.77473 16.8081 1.42034 16.4537C1.06594 16.0993 0.889047 15.6738 0.88965 15.1772V2.52029C0.88965 2.02305 1.06685 1.59724 1.42124 1.24285C1.77563 0.888452 2.20115 0.711557 2.69778 0.71216H15.3547C15.8519 0.71216 16.2777 0.889357 16.6321 1.24375C16.9865 1.59814 17.1634 2.02366 17.1628 2.52029V15.1772C17.1628 15.6744 16.9856 16.1003 16.6312 16.4546C16.2768 16.809 15.8513 16.9859 15.3547 16.9853H2.69778Z" fill="#6900FF"/>
</svg>
