<svg width="31" height="24" viewBox="0 0 31 24" fill="none" xmlns="http://www.w3.org/2000/svg">
<path d="M28.56 2.794L30.9635 0.504798V0H22.6483L16.719 14.7389L9.97867 0H1.25801V0.504798L4.06108 3.87403C4.33727 4.12056 4.4783 4.49035 4.44305 4.85428V18.1082C4.53119 18.5836 4.37253 19.0767 4.03757 19.423L0.876038 23.2442V23.7372H9.83175V23.2324L6.67022 19.4171C6.32939 19.0708 6.16485 18.5895 6.23536 18.1023V6.64455L14.0981 23.749H15.0148L21.7786 6.64455V20.2682C21.7786 20.6263 21.7786 20.7026 21.5435 20.9374L19.1107 23.2853V23.7901H30.9106V23.2853L28.5659 20.9902C28.3602 20.8376 28.2544 20.5735 28.2956 20.3211V3.46315C28.2544 3.21075 28.3543 2.95248 28.56 2.794Z" fill="#6900FF"/>
</svg>
