<svg width="19" height="19" viewBox="0 0 19 19" fill="none" xmlns="http://www.w3.org/2000/svg">
<path d="M18.356 9.27715L10.2194 1.14057C9.89396 0.815105 9.44193 0.616211 8.94469 0.616211H2.61624C1.62176 0.616211 0.808105 1.42987 0.808105 2.42434V8.7528C0.808105 9.25003 1.007 9.70206 1.3415 10.0366L9.47809 18.1732C9.80355 18.4986 10.2556 18.6975 10.7528 18.6975C11.2501 18.6975 11.7021 18.4986 12.0276 18.1641L18.356 11.8357C18.6905 11.5102 18.8894 11.0582 18.8894 10.5609C18.8894 10.0637 18.6815 9.60262 18.356 9.27715ZM3.97233 5.13654C3.22196 5.13654 2.61624 4.53081 2.61624 3.78044C2.61624 3.03006 3.22196 2.42434 3.97233 2.42434C4.72271 2.42434 5.32843 3.03006 5.32843 3.78044C5.32843 4.53081 4.72271 5.13654 3.97233 5.13654Z" fill="#6900FF"/>
</svg>
