<svg width="35" height="35" viewBox="0 0 35 35" fill="none" xmlns="http://www.w3.org/2000/svg">
<path d="M34.3095 17.2476C34.3095 7.93372 26.7504 0.374633 17.4365 0.374633C8.12267 0.374633 0.563583 7.93372 0.563583 17.2476C0.563582 26.5615 8.12267 34.1206 17.4365 34.1206C26.7504 34.1206 34.3095 26.5615 34.3095 17.2476ZM16.8797 26.1059C16.1879 26.1059 15.6143 25.5322 15.6143 24.8404C15.6143 24.1486 16.1879 23.575 16.8797 23.575L21.9754 23.575L8.94945 10.549C8.69635 10.2959 8.57824 9.97535 8.57824 9.65476C8.57824 9.33418 8.69635 9.01359 8.94945 8.7605C9.43876 8.27118 10.2487 8.27118 10.738 8.7605L23.7639 21.7864L23.7639 16.6908C23.7639 15.999 24.3376 15.4253 25.0294 15.4253C25.7212 15.4253 26.2949 15.999 26.2949 16.6908L26.2949 24.8404C26.2949 25.5322 25.7212 26.1059 25.0294 26.1059L16.8797 26.1059Z" fill="#FF6464"/>
</svg>
