<svg width="16" height="18" viewBox="0 0 16 18" fill="none" xmlns="http://www.w3.org/2000/svg">
<path d="M2.65036 0.712158C2.11087 0.712158 1.59348 0.926469 1.212 1.30795C0.830522 1.68942 0.616211 2.20682 0.616211 2.7463V5.00647C0.616211 5.27359 0.668825 5.53811 0.771051 5.7849C0.873276 6.03169 1.02311 6.25594 1.212 6.44483C1.59348 6.8263 2.11087 7.04061 2.65036 7.04061H11.239C11.5061 7.04061 11.7706 6.988 12.0174 6.88577C12.2642 6.78355 12.4884 6.63371 12.6773 6.44483C12.8662 6.25594 13.0161 6.03169 13.1183 5.7849C13.2205 5.53811 13.2731 5.27359 13.2731 5.00647V2.7463C13.2731 2.20682 13.0588 1.68942 12.6773 1.30795C12.2959 0.926469 11.7785 0.712158 11.239 0.712158H2.65036ZM12.6882 12.8673L12.6222 12.9433C12.5074 13.0581 12.3552 13.1279 12.1933 13.14C12.0313 13.1521 11.8704 13.1057 11.7398 13.0092L11.6639 12.9433L9.85576 11.1351C9.74092 11.0203 9.6711 10.8681 9.65899 10.7062C9.64688 10.5443 9.69328 10.3834 9.78976 10.2528L9.85576 10.1768L11.6639 8.36868C11.785 8.24848 11.947 8.17838 12.1176 8.17238C12.2882 8.16637 12.4547 8.2249 12.584 8.33628C12.7133 8.44767 12.7958 8.60371 12.8152 8.77327C12.8345 8.94284 12.7891 9.11345 12.6882 9.25105L12.6222 9.32699L11.9722 9.97882H13.3283C13.6079 9.97873 13.8775 9.87497 14.0851 9.68762C14.2927 9.50026 14.4234 9.24261 14.452 8.96446L14.4584 8.84874V6.8146C14.4584 6.6428 14.5237 6.47743 14.6409 6.3519C14.7582 6.22637 14.9188 6.15004 15.0902 6.13833C15.2616 6.12662 15.431 6.18041 15.5643 6.28882C15.6976 6.39723 15.7847 6.55219 15.8081 6.72238L15.8144 6.8146V8.84874C15.8145 9.48199 15.5728 10.0914 15.1389 10.5526C14.7049 11.0137 14.1113 11.2919 13.4792 11.3304L13.3283 11.3349H11.9731L12.6222 11.9849C12.737 12.0998 12.8068 12.252 12.819 12.4139C12.8311 12.5758 12.7847 12.7367 12.6882 12.8673ZM9.90458 8.84874L9.19308 9.56115L9.08368 9.68772L9.0638 9.71393C8.83776 10.0186 8.72874 10.3944 8.75662 10.7728C8.7845 11.1512 8.94742 11.5069 9.21568 11.7752L11.0473 13.6059L11.1739 13.7153L11.201 13.7352C11.5058 13.9611 11.8817 14.07 12.26 14.042C12.6384 14.0139 12.9941 13.8508 13.2623 13.5824L13.2731 13.5716V15.4032C13.2731 15.9427 13.0588 16.4601 12.6773 16.8416C12.2959 17.223 11.7785 17.4374 11.239 17.4374H2.65036C2.11087 17.4374 1.59348 17.223 1.212 16.8416C0.830522 16.4601 0.616211 15.9427 0.616211 15.4032V10.8829C0.616211 10.3434 0.830522 9.82601 1.212 9.44453C1.59348 9.06306 2.11087 8.84874 2.65036 8.84874H9.90458ZM4.23247 13.1431C4.23247 13.5173 4.51544 13.8211 4.86532 13.8211H9.02402C9.37389 13.8211 9.65686 13.5173 9.65686 13.1431C9.65686 12.7688 9.37389 12.465 9.02402 12.465H4.86532C4.51544 12.465 4.23247 12.7688 4.23247 13.1431Z" fill="#6900FF"/>
</svg>
