<svg width="28" height="23" viewBox="0 0 28 23" fill="none" xmlns="http://www.w3.org/2000/svg">
<path d="M27.2254 3.0469C26.2151 3.49891 25.1356 3.79487 24.0083 3.94016C25.1675 3.24062 26.0502 2.14288 26.465 0.819138C25.3856 1.47025 24.1945 1.92764 22.9236 2.18593C21.9026 1.08281 20.4403 0.399414 18.8504 0.399414C15.761 0.399414 13.2724 2.93928 13.2724 6.04954C13.2724 6.49617 13.3096 6.92666 13.4 7.33562C8.7579 7.10962 4.65283 4.85494 1.89307 1.4272C1.40919 2.27203 1.12736 3.24062 1.12736 4.28455C1.12736 6.24326 2.12172 7.97597 3.60529 8.97685C2.70664 8.9607 1.82926 8.69703 1.08482 8.28269C1.08482 8.29883 1.08482 8.32036 1.08482 8.34726C1.08482 11.0916 3.02037 13.3732 5.5568 13.8952C5.10481 14.0189 4.60497 14.0835 4.0945 14.0835C3.73823 14.0835 3.37664 14.062 3.03632 13.9866C3.7595 16.2252 5.81203 17.8664 8.25274 17.9202C6.35441 19.4215 3.94029 20.3309 1.33474 20.3309C0.87744 20.3309 0.436092 20.3094 6.10352e-05 20.2556C2.47268 21.8699 5.40259 22.7901 8.56116 22.7901C18.8345 22.7901 24.4497 14.1803 24.4497 6.7168C24.4497 6.46927 24.4391 6.22712 24.4284 5.98497C25.5345 5.18857 26.465 4.19307 27.2254 3.0469Z" fill="#6900FF"/>
</svg>
